<?xml version="1.0" standalone="no"?>
<!DOCTYPE svg PUBLIC "-//W3C//DTD SVG 20010904//EN"
 "http://www.w3.org/TR/2001/REC-SVG-20010904/DTD/svg10.dtd">
<svg version="1.0" xmlns="http://www.w3.org/2000/svg"
 width="1200.000000pt" height="675.000000pt" viewBox="0 0 1200.000000 675.000000"
 preserveAspectRatio="xMidYMid meet">

<g transform="translate(0.000000,675.000000) scale(0.100000,-0.100000)"
fill="#000000" stroke="none">
<path d="M7355 6341 c-170 -98 -571 -327 -890 -510 -899 -516 -877 -503 -872
-520 3 -12 1789 -3119 2211 -3846 44 -77 218 -380 386 -672 l305 -532 1403 -1
c771 0 1402 3 1402 6 0 3 -33 63 -74 133 -80 135 -556 957 -641 1106 -28 50
-101 176 -162 280 -112 193 -335 579 -570 985 -72 124 -155 268 -185 320 -30
52 -140 241 -243 420 -104 179 -238 411 -298 515 -61 105 -174 300 -252 435
-78 135 -191 331 -252 435 -60 105 -145 251 -188 325 -43 74 -128 221 -188
325 -61 105 -175 303 -255 440 -79 138 -168 291 -197 340 -29 50 -66 114 -81
142 -16 29 -33 53 -39 53 -5 0 -149 -81 -320 -179z"/>
<path d="M4945 4133 c-176 -102 -633 -365 -1015 -585 -382 -220 -707 -408
-722 -417 l-27 -16 41 -70 c22 -39 89 -153 148 -255 141 -244 832 -1436 1015
-1750 56 -96 180 -311 276 -477 l174 -302 1397 -1 1396 0 -97 168 c-54 92
-200 345 -326 562 -125 217 -260 451 -300 520 -40 69 -148 256 -240 415 -92
160 -209 362 -260 450 -51 88 -269 466 -485 840 -216 374 -423 732 -460 795
-37 63 -91 157 -121 209 -30 52 -59 96 -64 97 -6 1 -154 -81 -330 -183z"/>
<path d="M2530 2008 c-151 -88 -423 -246 -605 -351 -181 -104 -413 -238 -515
-297 -102 -59 -288 -166 -415 -239 -126 -73 -240 -139 -252 -147 -21 -13 -19
-18 138 -291 88 -153 178 -311 200 -350 l40 -73 1400 0 c769 0 1399 2 1399 5
0 2 -14 28 -31 57 -37 63 -193 332 -294 508 -39 69 -105 184 -147 255 -41 72
-169 292 -283 490 -114 198 -238 411 -274 474 -36 63 -70 115 -76 117 -5 1
-134 -70 -285 -158z"/>
</g>
</svg>
