<?xml version="1.0" standalone="no"?>
<!DOCTYPE svg PUBLIC "-//W3C//DTD SVG 20010904//EN"
 "http://www.w3.org/TR/2001/REC-SVG-20010904/DTD/svg10.dtd">
<svg version="1.0" xmlns="http://www.w3.org/2000/svg"
 width="2000.000000pt" height="2000.000000pt" viewBox="0 0 2000.000000 2000.000000"
 preserveAspectRatio="xMidYMid meet">

<g transform="translate(0.000000,2000.000000) scale(0.100000,-0.100000)"
fill="#000000" stroke="none">
<path d="M9770 19203 c-391 -15 -994 -78 -1380 -143 -1640 -277 -2911 -866
-3847 -1783 -94 -92 -206 -208 -249 -258 l-78 -89 -2108 0 -2108 0 0 -2940 0
-2940 1582 2 c1217 2 1582 6 1581 15 -12 59 -55 385 -65 488 -20 206 -17 835
5 1020 72 606 220 1122 466 1621 478 970 1248 1737 2321 2309 880 470 2027
790 3245 905 498 47 676 54 1280 54 679 0 1071 -22 1680 -95 987 -117 2031
-363 2825 -664 550 -208 859 -352 1383 -643 193 -108 227 -130 224 -147 -4
-19 -1815 -4386 -1822 -4393 -1 -2 -111 51 -242 117 -934 467 -1631 735 -2394
920 -612 149 -1110 211 -1709 211 -705 0 -1169 -92 -1366 -272 -65 -60 -93
-113 -94 -178 0 -84 69 -149 246 -231 219 -101 723 -244 1254 -354 133 -28
736 -151 955 -196 656 -133 1325 -296 1765 -431 1249 -382 2144 -872 2782
-1524 567 -579 907 -1244 1065 -2084 9 -45 9 -44 26 60 93 566 67 1292 -69
1897 -123 552 -396 1127 -741 1561 l-26 32 1922 0 1921 0 0 2940 0 2940 -1885
0 c-1037 0 -1885 3 -1885 6 0 3 68 170 152 371 145 351 151 366 132 380 -10 7
-133 77 -273 155 -414 230 -833 426 -1221 573 -1184 447 -2478 708 -3895 785
-167 9 -1151 11 -1355 3z"/>
<path d="M4154 7922 l-350 -797 -1902 -3 -1902 -2 0 -3170 0 -3170 10000 0
10000 0 0 3170 0 3170 -1491 0 -1492 0 6 -37 c15 -96 29 -506 23 -688 -29
-951 -333 -1851 -887 -2627 -292 -409 -707 -828 -1139 -1149 -973 -724 -2216
-1186 -3704 -1379 -218 -28 -360 -42 -711 -72 -210 -18 -1598 -18 -1860 0
-387 26 -923 80 -1230 123 -1682 235 -3187 703 -4280 1332 -134 77 -480 291
-499 308 -7 6 1932 4427 1953 4451 4 4 133 -68 287 -161 511 -306 863 -483
1364 -683 1217 -486 2577 -739 3716 -689 512 23 823 75 1020 171 138 67 180
136 138 226 -64 135 -413 288 -1009 442 -351 91 -586 144 -1510 338 -1999 419
-3180 887 -4091 1621 -50 40 -93 73 -95 73 -2 0 -162 -359 -355 -798z"/>
</g>
</svg>
